<mxfile host="65bd71144e">
    <diagram id="0Tf9AEqikt2TnY3NTsb8" name="第 1 页">
        <mxGraphModel dx="1067" dy="709" grid="1" gridSize="10" guides="1" tooltips="1" connect="1" arrows="1" fold="1" page="1" pageScale="1" pageWidth="827" pageHeight="1169" math="0" shadow="0">
            <root>
                <mxCell id="0"/>
                <mxCell id="1" parent="0"/>
                <mxCell id="14" value="" style="group" vertex="1" connectable="0" parent="1">
                    <mxGeometry y="390" width="316.88" height="411" as="geometry"/>
                </mxCell>
                <mxCell id="10" value="中间调用函数栈" style="text;html=1;align=center;verticalAlign=middle;resizable=0;points=[];autosize=1;strokeColor=none;fillColor=none;" vertex="1" parent="14">
                    <mxGeometry y="184.42071255496725" width="110" height="30" as="geometry"/>
                </mxCell>
                <mxCell id="13" value="" style="group" vertex="1" connectable="0" parent="14">
                    <mxGeometry x="5.000078895463512" width="311.8799211045365" height="411" as="geometry"/>
                </mxCell>
                <mxCell id="2" value="" style="rounded=0;whiteSpace=wrap;html=1;rotation=90;" vertex="1" parent="13">
                    <mxGeometry x="35.000552268244576" y="119.22008692196255" width="388.756134122288" height="173.88238612325483" as="geometry"/>
                </mxCell>
                <mxCell id="6" value="" style="endArrow=classic;startArrow=classic;html=1;" edge="1" parent="13">
                    <mxGeometry width="50" height="50" relative="1" as="geometry">
                        <mxPoint x="105.00165680473373" as="sourcePoint"/>
                        <mxPoint x="105.00165680473373" y="147.5365700439738" as="targetPoint"/>
                    </mxGeometry>
                </mxCell>
                <mxCell id="9" value="" style="endArrow=classic;startArrow=classic;html=1;" edge="1" parent="13">
                    <mxGeometry width="50" height="50" relative="1" as="geometry">
                        <mxPoint x="105.00165680473373" y="263.45816079281036" as="sourcePoint"/>
                        <mxPoint x="105.00165680473373" y="147.5365700439738" as="targetPoint"/>
                    </mxGeometry>
                </mxCell>
                <mxCell id="11" value="" style="endArrow=classic;startArrow=classic;html=1;" edge="1" parent="13">
                    <mxGeometry width="50" height="50" relative="1" as="geometry">
                        <mxPoint x="105.00165680473373" y="410.9947308367842" as="sourcePoint"/>
                        <mxPoint x="105.00165680473373" y="263.45816079281036" as="targetPoint"/>
                    </mxGeometry>
                </mxCell>
                <mxCell id="12" value="switchto context" style="text;html=1;align=center;verticalAlign=middle;resizable=0;points=[];autosize=1;strokeColor=none;fillColor=none;" vertex="1" parent="13">
                    <mxGeometry y="316.14979295137243" width="110" height="30" as="geometry"/>
                </mxCell>
                <mxCell id="7" value="trapframe" style="text;html=1;align=center;verticalAlign=middle;resizable=0;points=[];autosize=1;strokeColor=none;fillColor=none;" vertex="1" parent="13">
                    <mxGeometry x="35.000552268244576" y="53.74546480173331" width="70" height="30" as="geometry"/>
                </mxCell>
                <mxCell id="27" value="" style="group" vertex="1" connectable="0" parent="1">
                    <mxGeometry x="364" y="370" width="105" height="185" as="geometry"/>
                </mxCell>
                <mxCell id="16" value="" style="shape=flexArrow;endArrow=classic;html=1;" edge="1" parent="27">
                    <mxGeometry width="50" height="50" relative="1" as="geometry">
                        <mxPoint y="30" as="sourcePoint"/>
                        <mxPoint y="170" as="targetPoint"/>
                    </mxGeometry>
                </mxCell>
                <mxCell id="17" value="store &lt;br&gt;trapframe" style="text;html=1;align=center;verticalAlign=middle;resizable=0;points=[];autosize=1;strokeColor=none;fillColor=none;" vertex="1" parent="27">
                    <mxGeometry x="15" y="80" width="70" height="40" as="geometry"/>
                </mxCell>
                <mxCell id="18" value="" style="endArrow=classic;html=1;" edge="1" parent="27">
                    <mxGeometry width="50" height="50" relative="1" as="geometry">
                        <mxPoint x="40" y="29.29000000000002" as="sourcePoint"/>
                        <mxPoint x="10" y="29.29000000000002" as="targetPoint"/>
                    </mxGeometry>
                </mxCell>
                <mxCell id="19" value="kernel &lt;br&gt;sp(末)&lt;br&gt;sp(始)" style="text;html=1;align=center;verticalAlign=middle;resizable=0;points=[];autosize=1;strokeColor=none;fillColor=none;" vertex="1" parent="27">
                    <mxGeometry x="40" width="60" height="60" as="geometry"/>
                </mxCell>
                <mxCell id="21" value="" style="endArrow=classic;html=1;" edge="1" parent="27">
                    <mxGeometry width="50" height="50" relative="1" as="geometry">
                        <mxPoint x="40" y="169.28999999999996" as="sourcePoint"/>
                        <mxPoint x="10" y="169.28999999999996" as="targetPoint"/>
                    </mxGeometry>
                </mxCell>
                <mxCell id="22" value="sp(末)" style="text;html=1;align=center;verticalAlign=middle;resizable=0;points=[];autosize=1;strokeColor=none;fillColor=none;" vertex="1" parent="27">
                    <mxGeometry x="40" y="155" width="60" height="30" as="geometry"/>
                </mxCell>
                <mxCell id="75" value="1" style="ellipse;whiteSpace=wrap;html=1;aspect=fixed;" vertex="1" parent="27">
                    <mxGeometry x="85" y="90" width="20" height="20" as="geometry"/>
                </mxCell>
                <mxCell id="43" value="" style="group" vertex="1" connectable="0" parent="1">
                    <mxGeometry x="410" y="640" width="100" height="200" as="geometry"/>
                </mxCell>
                <mxCell id="44" value="" style="shape=flexArrow;endArrow=classic;html=1;" edge="1" parent="43">
                    <mxGeometry width="50" height="50" relative="1" as="geometry">
                        <mxPoint y="30" as="sourcePoint"/>
                        <mxPoint y="170" as="targetPoint"/>
                    </mxGeometry>
                </mxCell>
                <mxCell id="46" value="" style="endArrow=classic;html=1;" edge="1" parent="43">
                    <mxGeometry width="50" height="50" relative="1" as="geometry">
                        <mxPoint x="40" y="29.29000000000002" as="sourcePoint"/>
                        <mxPoint x="10" y="29.29000000000002" as="targetPoint"/>
                    </mxGeometry>
                </mxCell>
                <mxCell id="47" value="sp(始)" style="text;html=1;align=center;verticalAlign=middle;resizable=0;points=[];autosize=1;strokeColor=none;fillColor=none;" vertex="1" parent="43">
                    <mxGeometry x="40" y="15" width="60" height="30" as="geometry"/>
                </mxCell>
                <mxCell id="48" value="" style="endArrow=classic;html=1;" edge="1" parent="43">
                    <mxGeometry width="50" height="50" relative="1" as="geometry">
                        <mxPoint x="40" y="169.28999999999996" as="sourcePoint"/>
                        <mxPoint x="10" y="169.28999999999996" as="targetPoint"/>
                    </mxGeometry>
                </mxCell>
                <mxCell id="49" value="kernel&lt;br&gt;sp(末)&lt;br&gt;sp(末)" style="text;html=1;align=center;verticalAlign=middle;resizable=0;points=[];autosize=1;strokeColor=none;fillColor=none;" vertex="1" parent="43">
                    <mxGeometry x="40" y="140" width="60" height="60" as="geometry"/>
                </mxCell>
                <mxCell id="77" value="2" style="ellipse;whiteSpace=wrap;html=1;aspect=fixed;" vertex="1" parent="43">
                    <mxGeometry x="60" y="80" width="20" height="20" as="geometry"/>
                </mxCell>
                <mxCell id="53" value="" style="group" vertex="1" connectable="0" parent="1">
                    <mxGeometry x="620" y="390" width="110" height="210" as="geometry"/>
                </mxCell>
                <mxCell id="30" value="store &lt;br&gt;trapframe" style="text;html=1;align=center;verticalAlign=middle;resizable=0;points=[];autosize=1;strokeColor=none;fillColor=none;" vertex="1" parent="53">
                    <mxGeometry x="15" y="65" width="70" height="40" as="geometry"/>
                </mxCell>
                <mxCell id="31" value="" style="endArrow=classic;html=1;" edge="1" parent="53">
                    <mxGeometry width="50" height="50" relative="1" as="geometry">
                        <mxPoint x="40" y="14.289999999999964" as="sourcePoint"/>
                        <mxPoint x="10" y="14.289999999999964" as="targetPoint"/>
                    </mxGeometry>
                </mxCell>
                <mxCell id="32" value="kernel&lt;br&gt;sp(末)&lt;br&gt;sp(末)" style="text;html=1;align=center;verticalAlign=middle;resizable=0;points=[];autosize=1;strokeColor=none;fillColor=none;" vertex="1" parent="53">
                    <mxGeometry x="40" y="-15" width="60" height="60" as="geometry"/>
                </mxCell>
                <mxCell id="33" value="" style="endArrow=classic;html=1;" edge="1" parent="53">
                    <mxGeometry width="50" height="50" relative="1" as="geometry">
                        <mxPoint x="40" y="154.28999999999996" as="sourcePoint"/>
                        <mxPoint x="10" y="154.28999999999996" as="targetPoint"/>
                    </mxGeometry>
                </mxCell>
                <mxCell id="34" value="sp(始)" style="text;html=1;align=center;verticalAlign=middle;resizable=0;points=[];autosize=1;strokeColor=none;fillColor=none;" vertex="1" parent="53">
                    <mxGeometry x="40" y="140" width="60" height="30" as="geometry"/>
                </mxCell>
                <mxCell id="50" value="" style="shape=flexArrow;endArrow=classic;html=1;" edge="1" parent="53">
                    <mxGeometry width="50" height="50" relative="1" as="geometry">
                        <mxPoint y="155" as="sourcePoint"/>
                        <mxPoint y="15" as="targetPoint"/>
                    </mxGeometry>
                </mxCell>
                <mxCell id="63" value="kernel &lt;br&gt;sp(始)" style="text;html=1;align=center;verticalAlign=middle;resizable=0;points=[];autosize=1;strokeColor=none;fillColor=none;" vertex="1" parent="53">
                    <mxGeometry x="50" y="170" width="60" height="40" as="geometry"/>
                </mxCell>
                <mxCell id="79" value="4" style="ellipse;whiteSpace=wrap;html=1;aspect=fixed;" vertex="1" parent="53">
                    <mxGeometry x="85" y="65" width="20" height="20" as="geometry"/>
                </mxCell>
                <mxCell id="55" value="" style="group" vertex="1" connectable="0" parent="1">
                    <mxGeometry x="570" y="655" width="110" height="185" as="geometry"/>
                </mxCell>
                <mxCell id="56" value="store &lt;br&gt;trapframe" style="text;html=1;align=center;verticalAlign=middle;resizable=0;points=[];autosize=1;strokeColor=none;fillColor=none;" vertex="1" parent="55">
                    <mxGeometry x="15" y="65" width="70" height="40" as="geometry"/>
                </mxCell>
                <mxCell id="57" value="" style="endArrow=classic;html=1;" edge="1" parent="55">
                    <mxGeometry width="50" height="50" relative="1" as="geometry">
                        <mxPoint x="40" y="14.289999999999964" as="sourcePoint"/>
                        <mxPoint x="10" y="14.289999999999964" as="targetPoint"/>
                    </mxGeometry>
                </mxCell>
                <mxCell id="58" value="sp(末)" style="text;html=1;align=center;verticalAlign=middle;resizable=0;points=[];autosize=1;strokeColor=none;fillColor=none;" vertex="1" parent="55">
                    <mxGeometry x="40" width="60" height="30" as="geometry"/>
                </mxCell>
                <mxCell id="59" value="" style="endArrow=classic;html=1;" edge="1" parent="55">
                    <mxGeometry width="50" height="50" relative="1" as="geometry">
                        <mxPoint x="40" y="154.28999999999996" as="sourcePoint"/>
                        <mxPoint x="10" y="154.28999999999996" as="targetPoint"/>
                    </mxGeometry>
                </mxCell>
                <mxCell id="60" value="kernel&lt;br&gt;sp(不变)&lt;br&gt;sp(始)" style="text;html=1;align=center;verticalAlign=middle;resizable=0;points=[];autosize=1;strokeColor=none;fillColor=none;" vertex="1" parent="55">
                    <mxGeometry x="35" y="125" width="70" height="60" as="geometry"/>
                </mxCell>
                <mxCell id="61" value="" style="shape=flexArrow;endArrow=classic;html=1;" edge="1" parent="55">
                    <mxGeometry width="50" height="50" relative="1" as="geometry">
                        <mxPoint y="155" as="sourcePoint"/>
                        <mxPoint y="15" as="targetPoint"/>
                    </mxGeometry>
                </mxCell>
                <mxCell id="78" value="3" style="ellipse;whiteSpace=wrap;html=1;aspect=fixed;" vertex="1" parent="55">
                    <mxGeometry x="90" y="65" width="20" height="20" as="geometry"/>
                </mxCell>
                <mxCell id="62" value="" style="edgeStyle=segmentEdgeStyle;endArrow=classic;html=1;curved=0;rounded=0;endSize=8;startSize=8;exitX=0.996;exitY=0.442;exitDx=0;exitDy=0;exitPerimeter=0;" edge="1" parent="1" source="60">
                    <mxGeometry width="50" height="50" relative="1" as="geometry">
                        <mxPoint x="705" y="801" as="sourcePoint"/>
                        <mxPoint x="710" y="600" as="targetPoint"/>
                    </mxGeometry>
                </mxCell>
                <mxCell id="70" value="" style="endArrow=classic;html=1;" edge="1" parent="1">
                    <mxGeometry width="50" height="50" relative="1" as="geometry">
                        <mxPoint x="370" y="550" as="sourcePoint"/>
                        <mxPoint x="400" y="660" as="targetPoint"/>
                    </mxGeometry>
                </mxCell>
                <mxCell id="71" value="" style="endArrow=classic;html=1;" edge="1" parent="1">
                    <mxGeometry width="50" height="50" relative="1" as="geometry">
                        <mxPoint x="570" y="660" as="sourcePoint"/>
                        <mxPoint x="620" y="555" as="targetPoint"/>
                    </mxGeometry>
                </mxCell>
                <mxCell id="74" value="&lt;font style=&quot;font-size: 18px;&quot;&gt;假现场：直接进入3状态，并且在恢复时跳过中间函数调用栈&lt;/font&gt;" style="text;html=1;align=center;verticalAlign=middle;resizable=0;points=[];autosize=1;strokeColor=none;fillColor=none;" vertex="1" parent="1">
                    <mxGeometry x="80" y="910" width="500" height="40" as="geometry"/>
                </mxCell>
            </root>
        </mxGraphModel>
    </diagram>
</mxfile>